A disenchanted meditation around an utopia that failed. The film is an anti-utopia; it didn't work, but from the dream remained wonderful traces, pieces, fragments. The film reflects the sadness and the cruel solitude of what did not take place, and at the same time marvels at the rubble of utopia which may reach a stunning beauty.

   General
      Complete name : Maldita Coincidência.avi
      Format : AVI
      Format/Info : Audio Video Interleave
      File size : 932 MiB
      Duration : 1h 15mn
      Overall bit rate : 1 726 Kbps
      Writing application : FairUse Wizard - http://fairusewizard.com
      Writing library : The best and REALLY easy backup tool
   Video #0
      ID : 0
      Format : MPEG-4 Visual
      Format profile : AdvancedSimple@L5
      Format settings, BVOP : Yes
      Format settings, QPel : No
      Format settings, GMC : No warppoints
      Format settings, Matrix : Default (MPEG)
      Muxing mode : Packed bitstream
      Codec ID : XVID
      Codec ID/Hint : XviD
      Duration : 1h 15mn
      Bit rate : 1 525 Kbps
      Width : 640 pixels
      Height : 464 pixels
      Display aspect ratio : 1.379
      Frame rate : 23.976 fps
      Resolution : 24 bits
      Colorimetry : 4:2:0
      Scan type : Progressive
      Bits/(Pixel*Frame) : 0.214
      Stream size : 823 MiB (88%)
      Writing library : XviD 1.2.0.dev47 (UTC 2006-11-01)
   Audio #1
      ID : 1
      Format : AC-3
      Format/Info : Audio Coding 3
      Codec ID : 2000
      Duration : 1h 15mn
      Bit rate mode : Constant
      Bit rate : 192 Kbps
      Channel(s) : 2 channels
      Channel positions : L R
      Sampling rate : 48.0 KHz
      Stream size : 104 MiB (11%)
      Alignment : Split accross interleaves
      Interleave, duration : 42 ms (1.00 video frame)
      Interleave, preload duration : 500 ms
 
http://www.imdb.com/title/tt0436560/

Portuguese audio; English subtiltes

My rip of the Brazilian DVD

Sergio Bianchi - Maldita Coincidência (1979)